# File created by Blade
# Date/Time:  Tue Sep 30 19:36:22 2014
#---------------------------------------------------------
:version 1.10
:name HOM
:units
  mass 1.0
  length 1.000000
  angle deg
:documentation
     Acclaim Skeleton File
:root
   axis xyz
   order TX TY TZ RX RY RZ
   position 0.000000 0.000000 0.000000
   orientation 0 0 0
:bonedata
   begin
      id 1
      name Spine_dum
      direction 0.000000 1.000000 0.000000
      length 3.241213
      axis 0.0 0.0 0.0 xyz
   end
   begin
      id 2
      name LeftUpLeg_dum
      direction 1.000000 0.000000 0.000000
      length 3.434019
      axis 0.0 0.0 0.0 xyz
   end
   begin
      id 3
      name RightUpLeg_dum
      direction -1.000000 0.000000 0.000000
      length 3.434019
      axis 0.0 0.0 0.0 xyz
   end
   begin
      id 4
      name Spine
      direction 0.000000 1.000000 0.000000
      length 0.000000
      axis 0.0 0.0 0.0 xyz
      dof rx ry rz
   end
   begin
      id 5
      name Spine_dum1
      direction 0.000000 1.000000 0.000000
      length 18.382958
      axis 0.0 0.0 0.0 xyz
   end
   begin
      id 6
      name Spine_dum2
      direction 0.000000 1.000000 0.000000
      length 12.828261
      axis 0.0 0.0 0.0 xyz
   end
   begin
      id 7
      name Spine_dum3
      direction 0.000000 1.000000 0.000000
      length 12.828261
      axis 0.0 0.0 0.0 xyz
   end
   begin
      id 8
      name Head
      direction 0.000000 1.000000 0.000000
      length 4.527550
      axis 0.0 0.0 0.0 xyz
      dof rx ry rz
   end
   begin
      id 9
      name LeftShoulder
      direction 1.000000 0.000000 0.000000
      length 7.748055
      axis 0.0 0.0 -90.0 xyz
      dof rx ry rz
   end
   begin
      id 10
      name LeftArm
      direction 1.000000 0.000000 0.000000
      length 10.635614
      axis 0.0 0.0 -90.0 xyz
      dof rx ry rz
   end
   begin
      id 11
      name LeftForeArm
      direction 1.000000 0.000000 0.000000
      length 8.346755
      axis 0.0 0.0 -90.0 xyz
      dof ry rz rx
   end
   begin
      id 12
      name LeftHand
      direction 0.000000 0.000000 0.000000
      length 0.000000
      axis 0.0 0.0 -90.0 xyz
      dof rx ry rz
   end
   begin
      id 13
      name LeftHand_dum1
      direction 0.000000 0.000000 0.000000
      length 0.000000
      axis 0.0 0.0 -90.0 xyz
   end
   begin
      id 14
      name LeftHand_dum2
      direction 1.000000 0.000000 0.000000
      length 3.937000
      axis 0.0 0.0 -90.0 xyz
   end
   begin
      id 15
      name LeftHandThumb1
      direction 0.000000 0.000000 1.000000
      length 3.937000
      axis 0.0 0.0 -90.0 xyz
      dof rx rz ry
   end
   begin
      id 16
      name RightShoulder
      direction -1.000000 0.000000 0.000000
      length 7.748055
      axis 0.0 0.0 90.0 xyz
      dof rx ry rz
   end
   begin
      id 17
      name RightArm
      direction -1.000000 0.000000 0.000000
      length 10.635614
      axis 0.0 0.0 90.0 xyz
      dof rx ry rz
   end
   begin
      id 18
      name RightForeArm
      direction -1.000000 0.000000 0.000000
      length 8.346755
      axis 0.0 0.0 90.0 xyz
      dof ry rz rx
   end
   begin
      id 19
      name RightHand
      direction 0.000000 0.000000 0.000000
      length 0.000000
      axis 0.0 0.0 90.0 xyz
      dof rx ry rz
   end
   begin
      id 20
      name RightHand_dum1
      direction 0.000000 0.000000 0.000000
      length 0.000000
      axis 0.0 0.0 90.0 xyz
   end
   begin
      id 21
      name RightHand_dum2
      direction -1.000000 0.000000 0.000000
      length 3.937000
      axis 0.0 0.0 90.0 xyz
   end
   begin
      id 22
      name RightHandThumb1
      direction 0.000000 0.000000 1.000000
      length 3.937000
      axis 0.0 0.0 90.0 xyz
      dof rx rz ry
   end
   begin
      id 23
      name LeftUpLeg
      direction 0.000000 -1.000000 0.000000
      length 15.713025
      axis 0.0 0.0 0.0 xyz
      dof rx ry rz
   end
   begin
      id 24
      name LeftLeg
      direction 0.000000 -1.000000 0.000000
      length 14.435119
      axis 0.0 0.0 0.0 xyz
      dof rx ry rz
   end
   begin
      id 25
      name LeftFoot
      direction 0.000000 -0.258819 0.965926
      length 4.938895
      axis 15.0 0.0 0.0 xyz
      dof rx ry rz
   end
   begin
      id 26
      name LeftToeBase
      direction 0.000000 0.000000 1.000000
      length 2.952750
      axis 0.0 0.0 0.0 xyz
      dof rx ry rz
   end
   begin
      id 27
      name RightUpLeg
      direction 0.000000 -1.000000 0.000000
      length 15.713025
      axis 0.0 0.0 0.0 xyz
      dof rx ry rz
   end
   begin
      id 28
      name RightLeg
      direction 0.000000 -1.000000 0.000000
      length 14.435119
      axis 0.0 0.0 0.0 xyz
      dof rx ry rz
   end
   begin
      id 29
      name RightFoot
      direction 0.000000 -0.258819 0.965926
      length 4.938895
      axis 15.0 0.0 0.0 xyz
      dof rx ry rz
   end
   begin
      id 30
      name RightToeBase
      direction 0.000000 0.000000 1.000000
      length 2.952750
      axis 0.0 0.0 0.0 xyz
      dof rx ry rz
   end
:hierarchy
   begin
      root Spine_dum LeftUpLeg_dum RightUpLeg_dum
      Spine_dum Spine
      LeftUpLeg_dum LeftUpLeg
      RightUpLeg_dum RightUpLeg
      Spine Spine_dum1 Spine_dum2 Spine_dum3
      Spine_dum1 Head
      Spine_dum2 LeftShoulder
      Spine_dum3 RightShoulder
      LeftShoulder LeftArm
      LeftArm LeftForeArm
      LeftForeArm LeftHand
      LeftHand LeftHand_dum1 LeftHand_dum2
      LeftHand_dum1 LeftHandThumb1
      RightShoulder RightArm
      RightArm RightForeArm
      RightForeArm RightHand
      RightHand RightHand_dum1 RightHand_dum2
      RightHand_dum1 RightHandThumb1
      LeftUpLeg LeftLeg
      LeftLeg LeftFoot
      LeftFoot LeftToeBase
      RightUpLeg RightLeg
      RightLeg RightFoot
      RightFoot RightToeBase
   end

# File created by Blade
# Date/Time:  Tue Sep 23 19:18:47 2014
# Frame Rate: 120.000 fps
#------------------------------------------------------
:FULLY-SPECIFIED
:DEGREES
701
root -2.327145 33.170162 0.192583 117.249933 33.281928 -16.678460
Spine -75.487659 -0.838026 27.993154
Head -36.658268 9.452421 35.729410
LeftShoulder -21.328456 24.704654 41.433673
LeftArm 108.847832 -38.400635 -88.648886
LeftForeArm -5.560965 0.000000 86.348096
LeftHand -59.398564 -0.000000 13.773880
LeftHandThumb1 -26.253704 0.000000 33.147579
RightShoulder -27.580983 -36.659727 -12.820072
RightArm 24.456685 64.173876 73.498693
RightForeArm 58.592135 -0.000000 8.396948
RightHand 8.334619 -0.000000 4.347103
RightHandThumb1 -24.326973 -0.000000 -32.862282
LeftUpLeg -125.673729 11.028079 -2.325304
LeftLeg -4.629638 -0.000000 0.000000
LeftFoot 3.786124 3.900079 15.782789
LeftToeBase -0.384616 -0.000000 0.000000
RightUpLeg 5.373267 5.942466 -35.232373
RightLeg 59.481064 -0.000000 -0.000000
RightFoot 38.439011 7.180956 4.792285
RightToeBase 38.476765 -0.000000 -0.000000
702
root -2.357871 33.169595 0.214581 116.529313 33.428362 -16.678947
Spine -75.095955 -0.873560 28.147034
Head -35.848497 9.223182 35.880905
LeftShoulder -21.177515 24.671910 41.579824
LeftArm 108.093208 -37.762029 -88.284033
LeftForeArm -5.305389 -0.000000 85.929147
LeftHand -59.265629 0.000000 14.137533
LeftHandThumb1 -26.253704 0.000000 33.147579
RightShoulder -27.791114 -36.826202 -12.558575
RightArm 25.107153 63.800663 73.935885
RightForeArm 59.729104 0.000000 8.265386
RightHand 8.607084 -0.000000 4.483634
RightHandThumb1 -24.326973 -0.000000 -32.862282
LeftUpLeg -124.893062 11.126528 -2.133242
LeftLeg -4.670281 -0.000000 0.000000
LeftFoot 3.404006 4.326777 15.456717
LeftToeBase 0.198884 -0.000000 -0.000000
RightUpLeg 5.484574 5.750379 -35.430334
RightLeg 59.547646 -0.000000 -0.000000
RightFoot 38.231910 7.174108 4.653429
RightToeBase 38.236500 -0.000000 -0.000000
703
root -2.404326 33.199329 0.252379 116.102487 34.181267 -17.228821
Spine -74.954526 -0.061828 28.666738
Head -34.847126 8.941620 35.960502
LeftShoulder -20.758275 24.676096 42.058513
LeftArm 107.104532 -37.277632 -88.113237
LeftForeArm -5.182480 0.000000 85.682548
LeftHand -59.042229 -0.000000 14.512983
LeftHandThumb1 -26.253704 0.000000 33.147579
RightShoulder -28.030234 -37.236649 -12.293481
RightArm 26.171603 63.330186 74.848263
RightForeArm 60.814713 -0.000000 8.022376
RightHand 9.023073 -0.000000 4.893914
RightHandThumb1 -24.326973 -0.000000 -32.862282
LeftUpLeg -124.931953 11.950271 -1.771731
LeftLeg -4.475433 -0.000000 0.000000
LeftFoot 2.936187 4.731002 14.691537
LeftToeBase 1.068575 -0.000000 -0.000000
RightUpLeg 4.407060 5.766759 -35.277973
RightLeg 59.982391 -0.000000 -0.000000
RightFoot 37.905318 7.003150 4.496444
RightToeBase 38.389915 -0.000000 -0.000000
704
root -2.434800 33.209432 0.292234 115.346100 34.477988 -17.217095
Spine -74.583011 -0.097349 29.050274
Head -33.821775 8.709667 36.174358
LeftShoulder -20.462664 24.719547 42.413310
LeftArm 106.106847 -36.591142 -87.815612
LeftForeArm -5.055348 -0.000000 85.550426
LeftHand -58.834336 0.000000 14.869591
LeftHandThumb1 -26.253704 0.000000 33.147579
RightShoulder -28.263651 -37.678163 -11.792054
RightArm 27.345790 62.989964 75.736597
RightForeArm 61.451797 0.000000 7.901260
RightHand 9.048579 -0.000000 5.637322
RightHandThumb1 -24.326973 -0.000000 -32.862282
LeftUpLeg -124.210915 12.069364 -1.564802
LeftLeg -4.342950 -0.000000 0.000000
LeftFoot 2.378810 5.013231 13.878373
LeftToeBase 1.940957 -0.000000 -0.000000
RightUpLeg 4.337008 5.557981 -35.276824
RightLeg 60.205565 -0.000000 -0.000000
RightFoot 37.686562 6.901810 4.240590
RightToeBase 38.537112 -0.000000 -0.000000
